<?xml version="1.0" standalone="no"?>
<!DOCTYPE svg PUBLIC "-//W3C//DTD SVG 20010904//EN"
 "http://www.w3.org/TR/2001/REC-SVG-20010904/DTD/svg10.dtd">
<svg version="1.0" xmlns="http://www.w3.org/2000/svg"
 width="260.000000pt" height="260.000000pt" viewBox="0 0 260.000000 260.000000"
 preserveAspectRatio="xMidYMid meet">
<metadata>
Created by potrace 1.11, written by Peter Selinger 2001-2013
</metadata>
<g transform="translate(0.000000,260.000000) scale(0.100000,-0.100000)"
fill="#000000" stroke="none">
<path d="M1980 2146 c-72 -15 -152 -60 -197 -109 -72 -81 -102 -185 -103 -359
l0 -88 175 0 175 0 0 113 c0 61 5 129 10 149 19 67 85 89 136 45 57 -50 41
-182 -43 -350 -37 -75 -221 -391 -362 -621 l-91 -150 0 -113 0 -113 430 0 430
0 0 135 0 135 -210 2 -210 3 66 98 c171 257 299 472 339 568 130 321 16 593
-274 655 -79 16 -196 17 -271 0z"/>
<path d="M30 1340 l0 -790 205 0 205 0 2 330 3 329 73 -282 c40 -155 75 -286
76 -292 2 -5 6 -27 11 -47 l7 -38 209 0 c134 0 209 4 209 10 0 6 -23 85 -50
178 -28 92 -53 174 -55 183 -2 8 -35 123 -74 254 l-71 239 47 144 46 144 101
-4 c105 -5 156 -21 172 -55 5 -10 10 -260 12 -555 l3 -538 194 0 195 0 0 790
0 790 -111 0 -111 0 -69 -64 c-38 -35 -100 -80 -139 -100 -77 -41 -180 -79
-180 -67 0 4 16 54 35 111 19 57 35 108 35 112 0 4 -87 8 -193 8 l-192 0 -12
-37 c-6 -21 -47 -156 -90 -301 l-78 -263 -3 301 -2 300 -205 0 -205 0 0 -790z"/>
</g>
</svg>
